# xmcd
#
# Track frame offsets: 
#        150
#        17349
#        37248
#        58774
#        81765
#        98267
#        115421
#        133926
#        146837
#        162741
#        180316
#        199739
#        220608
#        237917
#        262399
#        284282
#        303957
#        321820
#
# Disc length: 4503 seconds
#
# Revision: 0
# Processed by: cddbd v1.5.2PL0 Copyright (c) Steve Scherf et al.
# Submitted via: ExactAudioCopy v0.99pb5
#
DISCID=08119512
DTITLE=Va  - Hard and Heavy Time Life Box Set - Disc 5
DYEAR=1900
DGENRE=
TTITLE0=Judas Priest - Heading Out To The Highway
TTITLE1=Heart - Barracuda
TTITLE2=Boston - More Than A Feeling
TTITLE3=Blue Oyster Cult - (Don't Fear) The Reaper
TTITLE4=REO Speedwagon - Take It On The Run
TTITLE5=Poison - Unskinny Bop
TTITLE6=Europe - Rock The Night
TTITLE7=Kiss - Shout It Out Loud
TTITLE8=Mott The Hoople - All The Young Dudes
TTITLE9=Cheap Trick - Dream Police
TTITLE10=Night Ranger - (You Can Still) Rock In America
TTITLE11=Honeymoon Suite - Feel It Again
TTITLE12=Alice Cooper - House Of Fire
TTITLE13=Queensryche - Jet City Woman
TTITLE14=Pat Benatar - Promises In The Dark
TTITLE15=Deep Purple - Hush
TTITLE16=Danger Danger - Bang Bang
TTITLE17=Loverboy - Lovin' Every Minute Of It
EXTD=
EXTT0=
EXTT1=
EXTT2=
EXTT3=
EXTT4=
EXTT5=
EXTT6=
EXTT7=
EXTT8=
EXTT9=
EXTT10=
EXTT11=
EXTT12=
EXTT13=
EXTT14=
EXTT15=
EXTT16=
EXTT17=
PLAYORDER=
